<?xml version="1.0" encoding="utf-8"?>
<!-- Generator: Adobe Illustrator 24.2.0, SVG Export Plug-In . SVG Version: 6.00 Build 0)  -->
<svg version="1.1" id="Layer_1" xmlns="http://www.w3.org/2000/svg" xmlns:xlink="http://www.w3.org/1999/xlink" x="0px" y="0px"
	 viewBox="0 0 1000 1000" style="enable-background:new 0 0 1000 1000;" xml:space="preserve">
<style type="text/css">
	.st0{fill-rule:evenodd;clip-rule:evenodd;}
	.st1{fill:#F57E2D;}
</style>
<g>
	<path class="st0" d="M351.8,589.1c-20.3,15-49.7,22.9-75.1,22.9c-35.5,0-67.5-13.1-91.7-35c-1.9-1.7-0.2-4.1,2.1-2.7
		c26.1,15.2,58.4,24.3,91.8,24.3c22.5,0,47.2-4.7,70-14.3C352.2,582.9,355.1,586.6,351.8,589.1L351.8,589.1z"/>
	<path class="st0" d="M360.2,579.5c-2.6-3.3-17.2-1.6-23.7-0.8c-2,0.2-2.3-1.5-0.5-2.7c11.6-8.2,30.7-5.8,32.9-3.1
		c2.2,2.8-0.6,21.8-11.5,31c-1.7,1.4-3.3,0.7-2.5-1.2C357.3,596.5,362.8,582.8,360.2,579.5L360.2,579.5z"/>
	<path class="st0" d="M337,518.3v-7.9c0-1.2,0.9-2,2-2l35.5,0c1.1,0,2,0.8,2,2v6.8c0,1.1-1,2.6-2.7,5l-18.4,26.3
		c6.8-0.2,14.1,0.9,20.3,4.4c1.4,0.8,1.8,2,1.9,3.1v8.5c0,1.2-1.3,2.5-2.6,1.8c-10.9-5.7-25.5-6.4-37.6,0.1
		c-1.2,0.7-2.5-0.7-2.5-1.8v-8c0-1.3,0-3.5,1.3-5.5l21.3-30.6l-18.6,0C337.9,520.3,337,519.5,337,518.3L337,518.3z"/>
	<path class="st0" d="M207.3,567.8h-10.8c-1-0.1-1.9-0.8-1.9-1.8l0-55.5c0-1.1,0.9-2,2.1-2l10.1,0c1.1,0.1,1.9,0.8,2,1.9v7.2h0.2
		c2.6-7,7.6-10.3,14.2-10.3c6.8,0,11,3.3,14,10.3c2.6-7,8.6-10.3,14.9-10.3c4.5,0,9.5,1.9,12.5,6.1c3.4,4.7,2.7,11.4,2.7,17.4l0,35
		c0,1.1-0.9,2-2.1,2h-10.8c-1.1-0.1-1.9-0.9-1.9-2l0-29.4c0-2.3,0.2-8.2-0.3-10.4c-0.8-3.7-3.2-4.8-6.4-4.8c-2.6,0-5.4,1.8-6.5,4.6
		c-1.1,2.8-1,7.5-1,10.6v29.4c0,1.1-0.9,2-2.1,2h-10.8c-1.1-0.1-1.9-0.9-1.9-2l0-29.4c0-6.2,1-15.3-6.7-15.3
		c-7.8,0-7.5,8.9-7.5,15.3l0,29.4C209.4,566.9,208.5,567.8,207.3,567.8L207.3,567.8z"/>
	<path class="st0" d="M407.3,518.6c-8,0-8.5,10.9-8.5,17.6c0,6.8-0.1,21.3,8.4,21.3c8.4,0,8.8-11.7,8.8-18.8
		c0-4.7-0.2-10.3-1.6-14.7C413.1,520.1,410.7,518.6,407.3,518.6L407.3,518.6z M407.2,507.3c16,0,24.7,13.8,24.7,31.3
		c0,16.9-9.6,30.4-24.7,30.4c-15.7,0-24.3-13.8-24.3-31C382.8,520.7,391.5,507.3,407.2,507.3L407.2,507.3z"/>
	<path class="st0" d="M452.7,567.8h-10.8c-1.1-0.1-1.9-0.9-1.9-2l0-55.5c0.1-1,1-1.8,2.1-1.8l10,0c0.9,0,1.7,0.7,1.9,1.6v8.5h0.2
		c3-7.6,7.3-11.2,14.7-11.2c4.8,0,9.6,1.8,12.6,6.5c2.8,4.4,2.8,11.9,2.8,17.3V566c-0.1,1-1,1.7-2.1,1.7h-10.8
		c-1-0.1-1.8-0.8-1.9-1.7v-30.1c0-6.1,0.7-15-6.8-15c-2.6,0-5,1.8-6.3,4.4c-1.5,3.4-1.7,6.8-1.7,10.5v29.9
		C454.8,566.9,453.9,567.8,452.7,567.8L452.7,567.8z"/>
	<path class="st0" d="M319.5,567.7c-0.7,0.6-1.7,0.7-2.6,0.3c-3.6-3-4.2-4.4-6.2-7.2c-5.9,6-10.1,7.9-17.8,7.9
		c-9.1,0-16.2-5.6-16.2-16.9c0-8.8,4.8-14.7,11.5-17.7c5.9-2.6,14.1-3,20.3-3.7v-1.4c0-2.6,0.2-5.6-1.3-7.8c-1.3-2-3.8-2.8-6.1-2.8
		c-4.1,0-7.8,2.1-8.7,6.5c-0.2,1-0.9,1.9-1.9,2l-10.5-1.1c-0.9-0.2-1.9-0.9-1.6-2.3c2.4-12.5,13.6-16.4,23.8-16.6h0.8
		c5.2,0.1,11.9,1.5,15.9,5.4c5.3,4.9,4.8,11.5,4.8,18.6v16.8c0,5.1,2.1,7.3,4.1,10c0.7,1,0.8,2.2,0,2.9
		C325.6,562.4,321.7,565.8,319.5,567.7L319.5,567.7L319.5,567.7z M308.6,541.3c0,4.2,0.1,7.7-2,11.5c-1.7,3-4.5,4.9-7.5,4.9
		c-4.1,0-6.6-3.2-6.6-7.8c0-9.2,8.3-10.9,16.1-10.9V541.3L308.6,541.3z"/>
	<path class="st0" d="M177.8,567.7c-0.7,0.6-1.7,0.7-2.6,0.3c-3.6-3-4.2-4.4-6.2-7.2c-5.9,6-10.1,7.9-17.8,7.9
		c-9.1,0-16.2-5.6-16.2-16.9c0-8.8,4.8-14.7,11.5-17.7c5.9-2.6,14.1-3,20.3-3.7v-1.4c0-2.6,0.2-5.6-1.3-7.8c-1.3-2-3.8-2.8-6.1-2.8
		c-4.1,0-7.8,2.1-8.7,6.5c-0.2,1-0.9,1.9-1.9,2l-10.5-1.1c-0.9-0.2-1.9-0.9-1.6-2.3c2.4-12.5,13.6-16.4,23.8-16.6h0.8
		c5.2,0.1,11.9,1.5,15.9,5.4c5.3,4.9,4.8,11.5,4.8,18.6v16.8c0,5.1,2.1,7.3,4.1,10c0.7,1,0.8,2.2,0,2.9
		C183.9,562.4,179.9,565.8,177.8,567.7L177.8,567.7L177.8,567.7z M166.9,541.3c0,4.2,0.1,7.7-2,11.5c-1.7,3-4.5,4.9-7.5,4.9
		c-4.1,0-6.6-3.2-6.6-7.8c0-9.2,8.3-10.9,16.1-10.9V541.3L166.9,541.3z"/>
	<path class="st1" d="M712.5,556.1v-38.9h-9.3v-7.9h9.3v-12.7l9.2-3.2v15.9h17.9l-3.4,7.9h-14.5v37.3c0,3.6,1.6,6.5,5.4,6.5
		c4.2,0,7.4-2,10.6-4.2l3,6.6c-5.4,3.3-9,5.7-15.9,5.7C715.7,569.1,712.5,563.4,712.5,556.1L712.5,556.1z"/>
	<path class="st1" d="M501.7,567.8v-58.5h7.4l1.3,6.6c9.2-8.9,17.1-9.7,22.6-6.3l-3.8,8.8c-5.9-2.2-11.8-0.5-18.5,6v43.4H501.7
		L501.7,567.8z"/>
	<path class="st1" d="M592.8,565.4v-85.2h9.2v30.4c22.9-9.3,40.6,5.6,38.7,28.9c-1.3,16.9-12.4,28.9-31,29.6
		C603.8,569.2,596.5,568,592.8,565.4L592.8,565.4z M601.9,519.3v40.3c18.9,6,28.7-7.8,29.7-20.4C632.8,519,617.9,511.7,601.9,519.3
		L601.9,519.3z"/>
	<path class="st1" d="M757.7,509.5v58.3h-8.9v-58.3C751.7,509.8,754.8,509.8,757.7,509.5L757.7,509.5z"/>
	<path class="st1" d="M558.2,507.9c17.1,0,26.7,13.7,26.7,30.6c0,16.9-9,30.6-26.7,30.6c-17.7,0-26.7-13.7-26.7-30.6
		C531.5,521.6,541.1,507.9,558.2,507.9L558.2,507.9z M575.4,538.4c0-12.6-5.3-22.7-17.2-22.7c-11.9,0-17.3,10.1-17.3,22.7
		c0,12.6,5.9,22.7,17.4,22.7C569.8,561.1,575.4,551,575.4,538.4L575.4,538.4z"/>
	<path class="st1" d="M673.4,507.9c17.1,0,26.7,13.7,26.7,30.6c0,16.9-9,30.6-26.7,30.6c-17.7,0-26.7-13.7-26.7-30.6
		C646.7,521.6,656.3,507.9,673.4,507.9L673.4,507.9z M690.6,538.4c0-12.6-5.3-22.7-17.2-22.7c-11.9,0-17.3,10.1-17.3,22.7
		c0,12.6,5.9,22.7,17.4,22.7C685,561.1,690.6,551,690.6,538.4L690.6,538.4z"/>
	<path class="st1" d="M754.1,462.6c1.6,0,5,0.7,4.9,0.7c5.3,0.8,10.4-0.3,14.3-4.2c2.8-2.8,4.8-6.3,4.8-10c0-0.8-0.1-1.5-0.2-2.2
		c-0.9-2.2-1.4-4.6-1.4-7.2c0-2.7,0.6-5.3,1.6-7.7c1.3-4.5-0.3-7.6-3.1-11.2c-2.6-2.6-6.4-4-10.5-3.6c-1.4,0.4-2.9,0.7-4.4,0.7
		c-8.3,0-15-6.7-15-15c0-8.3,6.7-15,15-15c8.3,0,15,6.7,15,15c0,1.7-0.3,3.3-0.8,4.8c-0.8,5.5,0.6,7.4,2.7,10.6
		c2.8,2.8,6.4,5.1,10.5,3.8c2.5-1.2,5.4-1.9,8.4-1.9c10.7,0,19.4,8.7,19.4,19.4c0,10.7-8.7,19.4-19.4,19.4c-2.2,0-4.3-0.4-6.2-1
		c0.9,0.3-2.5-0.4-2.7-0.5c-4.7-0.5-7.4,1-11,4.7c-3.3,3.3-4.2,6.9-4.1,12.2c0.1,2.4,0.8,4.3,0.8,6.9c0,10.3-8.4,18.7-18.7,18.7
		c-10.3,0-18.7-8.4-18.7-18.7C735.4,471,743.8,462.6,754.1,462.6L754.1,462.6z M760.2,409.8c3.8,0,6.9-3.1,6.9-6.9
		c0-3.8-3.1-6.9-6.9-6.9c-3.8,0-6.9,3.1-6.9,6.9C753.2,406.7,756.4,409.8,760.2,409.8L760.2,409.8z M795.9,427.1
		c-6.9,0-12.5,5.6-12.5,12.5c0,6.9,5.6,12.5,12.5,12.5c6.9,0,12.5-5.6,12.5-12.5C808.4,432.7,802.8,427.1,795.9,427.1L795.9,427.1z
		 M787.2,439.6c0-4.8,3.9-8.7,8.7-8.7c4.8,0,8.7,3.9,8.7,8.7c0,4.8-3.9,8.7-8.7,8.7C791.1,448.3,787.2,444.4,787.2,439.6
		L787.2,439.6z"/>
	<path class="st1" d="M796.7,507.9c6.1,0,11.6,1.1,15.9,3.8v8.5c-4.8-2.9-9.3-4.3-16-4.3c-11.1,0-18.6,9.9-18.6,22.5
		c0,12.8,6.8,22.6,18.3,22.6c6.5,0,10.8-1.1,15.4-4.4l2.9,6.7c-5.2,3.6-12.2,5.8-18.8,5.8c-17.7,0-27-13.7-27-30.4
		C768.8,523.1,778.7,507.9,796.7,507.9L796.7,507.9z"/>
	<path class="st1" d="M836.1,561.6c-5.4,0.1-9.8-0.9-15.1-4l-3.5,7c5.4,3.5,10.5,4.6,19.2,4.6c6.8,0,12.9-2.6,16.5-6.5
		c2.7-3,3.9-6.7,3.9-10.6c0-8.6-4.9-12.7-12.7-16.6l-7.6-3.6c-4-2-6.8-4.4-6.8-9.4c0-3.3,3.2-6.7,10-6.7c4.2-0.1,10.3,0.8,15.2,3.6
		V511c-4-2.1-9.1-3.2-15.5-3.1c-14,0-18.7,8.5-18.7,15.3c0,9.1,4.8,12.9,10.9,16.3l8.1,3.7c4.8,2.8,7.5,5.4,7.5,9.5
		C847.4,558.8,842,561.6,836.1,561.6L836.1,561.6z"/>
</g>
</svg>
