<?xml version="1.0" standalone="no"?>
<!DOCTYPE svg PUBLIC "-//W3C//DTD SVG 20010904//EN"
 "http://www.w3.org/TR/2001/REC-SVG-20010904/DTD/svg10.dtd">
<svg version="1.0" xmlns="http://www.w3.org/2000/svg"
 width="200.000000pt" height="200.000000pt" viewBox="0 0 200.000000 200.000000"
 preserveAspectRatio="xMidYMid meet">

<g transform="translate(0.000000,200.000000) scale(0.100000,-0.100000)"
fill="#000000" stroke="none">
<path d="M1230 1191 c-203 -8 -220 -21 -220 -161 l0 -85 45 3 45 4 0 49 0 50
93 -3 92 -3 0 -47 0 -46 48 -4 47 -3 0 128 c0 70 -1 126 -2 125 -2 -1 -68 -4
-148 -7z m55 -66 l0 -30 -92 -3 c-74 -2 -93 0 -93 11 0 17 29 43 55 50 11 3
45 4 75 4 54 -2 55 -2 55 -32z"/>
<path d="M230 1070 l0 -120 45 0 45 0 0 45 0 45 59 0 c58 0 60 -1 99 -45 37
-42 43 -45 88 -45 l48 0 -48 49 c-47 48 -48 49 -25 56 37 11 59 36 59 64 -1
62 -29 71 -214 71 l-156 0 0 -120z m276 68 c38 -38 -31 -66 -131 -53 -55 6
-55 6 -55 42 l0 35 85 -3 c63 -3 89 -8 101 -21z"/>
<path d="M693 1175 c-42 -18 -65 -56 -65 -106 1 -51 24 -87 67 -105 48 -20
285 -20 285 0 0 10 -27 15 -115 21 -102 6 -117 10 -130 28 -8 12 -15 25 -15
29 0 5 59 8 130 8 123 0 130 1 130 20 0 19 -7 20 -130 20 -73 0 -130 4 -130 9
0 14 30 42 57 52 13 5 65 9 114 9 72 0 89 3 89 15 0 13 -21 15 -127 15 -86 -1
-138 -5 -160 -15z"/>
<path d="M1410 1105 c0 -94 11 -128 47 -144 13 -6 75 -11 138 -11 91 0 115 3
115 14 0 10 -22 15 -89 18 -53 2 -96 9 -105 17 -12 10 -16 33 -16 102 l0 89
-45 0 -45 0 0 -85z"/>
<path d="M1372 860 c0 -19 2 -27 5 -17 2 9 2 25 0 35 -3 9 -5 1 -5 -18z"/>
</g>
</svg>
