<?xml version="1.0" standalone="no"?>
<!DOCTYPE svg PUBLIC "-//W3C//DTD SVG 20010904//EN"
 "http://www.w3.org/TR/2001/REC-SVG-20010904/DTD/svg10.dtd">
<svg version="1.0" xmlns="http://www.w3.org/2000/svg"
 width="400.000000pt" height="400.000000pt" viewBox="0 0 400.000000 400.000000"
 preserveAspectRatio="xMidYMid meet">

<g transform="translate(0.000000,400.000000) scale(0.100000,-0.100000)"
fill="#304D8C" stroke="none">
<path d="M330 2141 l0 -291 105 0 105 0 0 110 0 110 124 0 124 0 105 -110 104
-110 114 0 114 0 -120 120 c-77 77 -114 121 -104 123 8 3 34 10 57 17 24 6 60
26 80 45 36 32 37 36 37 100 0 64 -1 68 -37 100 -68 63 -104 68 -475 73 l-333
3 0 -290z m595 174 c60 -25 69 -89 17 -123 -22 -14 -57 -18 -214 -20 l-188 -4
0 81 0 81 175 0 c131 0 185 -4 210 -15z"/>
<path d="M1474 2415 c-111 -24 -186 -74 -227 -150 -17 -32 -22 -57 -22 -125 0
-68 5 -93 22 -125 42 -78 128 -134 237 -154 33 -6 169 -11 303 -11 l243 0 0
50 0 50 -235 0 c-275 0 -294 4 -325 72 -11 24 -20 49 -20 56 0 9 65 12 290 12
l290 0 0 50 0 50 -291 0 -291 0 7 28 c10 40 51 79 103 97 36 12 93 15 259 15
l214 0 -3 48 -3 47 -245 2 c-173 1 -263 -2 -306 -12z"/>
<path d="M2410 2424 c-143 -22 -212 -48 -262 -101 -52 -54 -58 -86 -58 -288
l0 -185 105 0 105 0 0 120 0 120 205 0 205 0 0 -120 0 -120 110 0 110 0 0 290
0 290 -247 -1 c-137 -1 -259 -3 -273 -5z m310 -164 l0 -70 -210 0 c-231 0
-227 -1 -195 60 31 61 90 78 263 79 l142 1 0 -70z"/>
<path d="M3000 2220 c0 -230 4 -253 56 -302 59 -55 96 -61 372 -66 l252 -4 0
51 0 51 -185 0 c-194 0 -241 8 -271 48 -10 13 -13 68 -14 225 l0 207 -105 0
-105 0 0 -210z"/>
<path d="M1168 1793 c464 -2 1220 -2 1680 0 460 1 81 2 -843 2 -924 0 -1301
-1 -837 -2z"/>
<path d="M341 1726 c-17 -20 -7 -44 22 -55 36 -14 52 -38 37 -56 -16 -19 -29
-19 -52 2 -10 9 -18 11 -18 5 0 -12 31 -32 49 -32 14 0 41 29 41 46 0 7 -18
25 -40 39 -22 14 -40 30 -40 35 0 18 32 24 52 11 16 -10 19 -10 16 1 -7 19
-53 22 -67 4z"/>
<path d="M550 1721 c-15 -29 -12 -84 6 -107 15 -18 15 -18 5 3 -15 29 -14 86
1 101 20 20 48 14 58 -14 16 -40 12 -63 -15 -89 -26 -27 -20 -33 11 -11 23 17
27 94 5 119 -18 23 -58 21 -71 -2z"/>
<path d="M760 1670 c0 -38 3 -70 8 -70 4 0 7 28 7 62 l0 63 40 6 40 6 -47 2
-48 1 0 -70z"/>
<path d="M982 1733 c26 -4 27 -7 31 -71 l3 -67 2 67 c2 64 3 67 30 71 15 2 0
4 -33 4 -33 0 -48 -2 -33 -4z"/>
<path d="M1181 1730 c0 -8 7 -31 15 -50 l14 -35 -6 35 c-7 40 -24 76 -23 50z"/>
<path d="M1256 1722 c-4 -13 -5 -26 -2 -29 3 -4 6 2 7 13 0 12 6 6 14 -16 7
-19 14 -28 14 -20 0 8 -6 29 -13 45 -13 30 -13 30 -20 7z"/>
<path d="M1336 1714 c-4 -14 -5 -28 -3 -31 3 -2 8 8 11 23 4 14 5 28 3 31 -3
2 -8 -8 -11 -23z"/>
<path d="M1482 1688 c-11 -29 -23 -62 -27 -73 -6 -19 -6 -19 8 -2 8 10 28 17
47 17 20 0 38 -7 46 -17 7 -10 4 7 -7 37 -22 57 -37 84 -24 40 4 -14 10 -31
12 -37 4 -9 -5 -13 -26 -13 -17 0 -31 3 -31 7 0 16 25 73 32 73 4 0 8 5 8 10
0 26 -19 5 -38 -42z"/>
<path d="M1702 1668 c0 -40 3 -58 5 -40 3 18 10 32 18 32 7 0 22 -15 34 -32
11 -18 21 -29 21 -25 0 4 -7 19 -16 32 -15 23 -15 25 0 31 21 8 21 60 0 68 -9
3 -27 6 -40 6 -23 0 -24 -2 -22 -72z m63 32 c0 -20 -6 -26 -27 -28 -25 -3 -28
0 -28 28 0 28 3 31 28 28 21 -2 27 -8 27 -28z"/>
<path d="M1920 1670 l0 -70 48 2 47 1 -42 4 c-40 4 -43 6 -43 33 0 26 4 29 38
33 l37 4 -37 1 c-33 2 -38 5 -38 26 0 22 5 25 43 29 l42 4 -47 1 -48 2 0 -70z"/>
<path d="M2262 1728 c-21 -21 -13 -37 28 -63 43 -27 47 -34 28 -53 -16 -16
-33 -15 -52 4 -9 8 -16 11 -16 5 0 -16 38 -33 59 -26 44 14 35 59 -15 80 -36
15 -45 41 -18 52 9 3 26 0 38 -7 19 -12 20 -12 7 3 -16 20 -42 22 -59 5z"/>
<path d="M2460 1735 c0 -3 11 -23 25 -45 14 -22 26 -52 26 -67 1 -24 2 -23 8
8 4 20 18 53 31 74 13 21 18 35 12 31 -7 -4 -19 -20 -27 -37 -20 -37 -29 -37
-45 1 -11 28 -30 50 -30 35z"/>
<path d="M2692 1728 c-21 -21 -13 -37 28 -63 43 -27 47 -34 28 -53 -16 -16
-33 -15 -52 4 -9 8 -16 11 -16 5 0 -16 38 -33 59 -26 44 14 32 66 -19 83 -32
12 -40 39 -14 49 9 3 25 1 35 -6 11 -6 19 -7 19 -2 0 20 -50 27 -68 9z"/>
<path d="M2892 1733 c26 -4 27 -7 31 -71 l3 -67 2 67 c2 64 3 67 30 71 15 2 0
4 -33 4 -33 0 -48 -2 -33 -4z"/>
<path d="M3100 1670 l0 -70 48 2 47 1 -43 4 c-40 4 -43 6 -40 31 2 22 9 28 38
33 l35 6 -38 2 c-34 1 -38 4 -35 24 2 17 11 23 43 28 l40 6 -47 2 -48 1 0 -70z"/>
<path d="M3332 1668 l2 -73 3 70 c3 48 7 65 13 55 8 -13 10 -12 10 3 0 9 -7
17 -15 17 -12 0 -15 -14 -13 -72z"/>
<path d="M3430 1729 c0 -5 4 -8 10 -4 5 3 11 -23 13 -62 l3 -68 2 73 c2 58 -1
72 -13 72 -8 0 -15 -5 -15 -11z"/>
<path d="M3607 1734 c-19 -19 -6 -51 29 -68 30 -14 35 -21 32 -41 -3 -13 -1
-22 3 -19 21 12 7 46 -26 65 -42 25 -48 59 -11 59 13 0 27 -5 29 -10 3 -6 4
-5 3 2 -3 14 -48 23 -59 12z"/>
<path d="M3361 1690 c0 -8 4 -24 9 -35 5 -13 9 -14 9 -5 0 8 -4 24 -9 35 -5
13 -9 14 -9 5z"/>
<path d="M1241 1664 c0 -11 3 -14 6 -6 3 7 2 16 -1 19 -3 4 -6 -2 -5 -13z"/>
<path d="M3411 1664 c0 -11 3 -14 6 -6 3 7 2 16 -1 19 -3 4 -6 -2 -5 -13z"/>
<path d="M1316 1645 c-8 -27 -9 -28 -16 -10 -6 13 -9 15 -9 5 0 -8 3 -22 9
-30 7 -11 11 -9 20 14 6 16 9 34 7 40 -2 6 -7 -3 -11 -19z"/>
<path d="M1213 1627 c3 -25 21 -26 25 -2 2 15 1 17 -6 6 -8 -11 -11 -11 -16 0
-3 9 -5 7 -3 -4z"/>
<path d="M3400 1631 c0 -7 -4 -9 -10 -6 -5 3 -10 -1 -10 -9 0 -9 4 -16 9 -16
11 0 24 31 16 38 -3 3 -5 0 -5 -7z"/>
<path d="M3612 1604 c9 -9 21 -15 27 -13 6 2 -2 10 -17 17 -25 11 -25 11 -10
-4z"/>
</g>
</svg>
